<?xml version="1.0" encoding="UTF-8" standalone="no"?>
<svg
   xmlns:dc="http://purl.org/dc/elements/1.1/"
   xmlns:cc="http://creativecommons.org/ns#"
   xmlns:rdf="http://www.w3.org/1999/02/22-rdf-syntax-ns#"
   xmlns:svg="http://www.w3.org/2000/svg"
   xmlns="http://www.w3.org/2000/svg"
   xmlns:sodipodi="http://sodipodi.sourceforge.net/DTD/sodipodi-0.dtd"
   xmlns:inkscape="http://www.inkscape.org/namespaces/inkscape"
   id="RSSicon"
   viewBox="0 0 8 8"
   width="256"
   height="256"
   version="1.1"
   sodipodi:docname="icon-rss.svg"
   inkscape:version="0.92.2 5c3e80d, 2017-08-06">
  <metadata
     id="metadata19">
    <rdf:RDF>
      <cc:Work
         rdf:about="">
        <dc:format>image/svg+xml</dc:format>
        <dc:type
           rdf:resource="http://purl.org/dc/dcmitype/StillImage" />
      </cc:Work>
    </rdf:RDF>
  </metadata>
  <defs
     id="defs17" />
  <sodipodi:namedview
     pagecolor="#ffffff"
     bordercolor="#666666"
     borderopacity="1"
     objecttolerance="10"
     gridtolerance="10"
     guidetolerance="10"
     inkscape:pageopacity="0"
     inkscape:pageshadow="2"
     inkscape:window-width="1432"
     inkscape:window-height="874"
     id="namedview15"
     showgrid="false"
     inkscape:zoom="1.84375"
     inkscape:cx="101.17153"
     inkscape:cy="89.042746"
     inkscape:window-x="0"
     inkscape:window-y="22"
     inkscape:window-maximized="0"
     inkscape:current-layer="RSSicon" />
  <title
     id="title2">RSS feed icon</title>
  <style
     type="text/css"
     id="style4">
    .button {stroke: none; fill: orange;}
    .symbol {stroke: none; fill: white;}
  </style>
  <path
     style="fill:#828282;fill-opacity:1;stroke:none;stroke-width:32"
     d="M 48 0 C 21.408 0 0 21.408 0 48 L 0 208 C 0 234.592 21.408 256 48 256 L 208 256 C 234.592 256 256 234.592 256 208 L 256 48 C 256 21.408 234.592 0 208 0 L 48 0 z M 32 32 A 192 192 0 0 1 224 224 L 192 224 A 160 160 0 0 0 32 64 L 32 32 z M 32 96 A 128 128 0 0 1 160 224 L 128 224 A 96 96 0 0 0 32 128 L 32 96 z M 64 160 A 32 32 0 0 1 96 192 A 32 32 0 0 1 64 224 A 32 32 0 0 1 32 192 A 32 32 0 0 1 64 160 z "
     id="rect6"
     transform="scale(0.03125)" />
</svg>
