<?xml version="1.0" encoding="UTF-8" standalone="no"?>
<!DOCTYPE svg PUBLIC "-//W3C//DTD SVG 1.1//EN"
 "http://www.w3.org/Graphics/SVG/1.1/DTD/svg11.dtd">
<!-- Generated by graphviz version 13.1.2 (20250808.2320)
 -->
<!-- Pages: 1 -->
<svg width="198pt" height="188pt"
 viewBox="0.00 0.00 198.00 188.00" xmlns="http://www.w3.org/2000/svg" xmlns:xlink="http://www.w3.org/1999/xlink">
<g id="graph0" class="graph" transform="scale(1 1) rotate(0) translate(4 184)">
<polygon fill="white" stroke="none" points="-4,4 -4,-184 193.81,-184 193.81,4 -4,4"/>
<!-- foo.exe -->
<g id="node1" class="node">
<title>foo.exe</title>
<ellipse fill="none" stroke="black" cx="100.79" cy="-162" rx="38.56" ry="18"/>
<text xml:space="preserve" text-anchor="middle" x="100.79" y="-156.95" font-family="Times New Roman,serif" font-size="14.00">foo.exe</text>
</g>
<!-- main.cmx -->
<g id="node2" class="node">
<title>main.cmx</title>
<ellipse fill="none" stroke="black" cx="48.79" cy="-90" rx="48.79" ry="18"/>
<text xml:space="preserve" text-anchor="middle" x="48.79" y="-84.95" font-family="Times New Roman,serif" font-size="14.00">main.cmx</text>
</g>
<!-- foo.exe&#45;&gt;main.cmx -->
<g id="edge1" class="edge">
<title>foo.exe&#45;&gt;main.cmx</title>
<path fill="none" stroke="black" d="M88.73,-144.76C82.52,-136.4 74.8,-126.02 67.81,-116.61"/>
<polygon fill="black" stroke="black" points="70.82,-114.79 62.05,-108.85 65.2,-118.96 70.82,-114.79"/>
</g>
<!-- main.o -->
<g id="node3" class="node">
<title>main.o</title>
<ellipse fill="none" stroke="black" cx="152.79" cy="-90" rx="37.02" ry="18"/>
<text xml:space="preserve" text-anchor="middle" x="152.79" y="-84.95" font-family="Times New Roman,serif" font-size="14.00">main.o</text>
</g>
<!-- foo.exe&#45;&gt;main.o -->
<g id="edge2" class="edge">
<title>foo.exe&#45;&gt;main.o</title>
<path fill="none" stroke="black" d="M112.85,-144.76C119.15,-136.28 127,-125.71 134.07,-116.2"/>
<polygon fill="black" stroke="black" points="136.74,-118.48 139.89,-108.36 131.12,-114.3 136.74,-118.48"/>
</g>
<!-- main.ml -->
<g id="node4" class="node">
<title>main.ml</title>
<ellipse fill="none" stroke="black" cx="100.79" cy="-18" rx="42.65" ry="18"/>
<text xml:space="preserve" text-anchor="middle" x="100.79" y="-12.95" font-family="Times New Roman,serif" font-size="14.00">main.ml</text>
</g>
<!-- main.cmx&#45;&gt;main.ml -->
<g id="edge3" class="edge">
<title>main.cmx&#45;&gt;main.ml</title>
<path fill="none" stroke="black" d="M61.12,-72.41C67.27,-64.13 74.85,-53.92 81.73,-44.66"/>
<polygon fill="black" stroke="black" points="84.5,-46.8 87.65,-36.68 78.88,-42.63 84.5,-46.8"/>
</g>
<!-- main.o&#45;&gt;main.ml -->
<g id="edge4" class="edge">
<title>main.o&#45;&gt;main.ml</title>
<path fill="none" stroke="black" d="M140.73,-72.76C134.52,-64.4 126.8,-54.02 119.81,-44.61"/>
<polygon fill="black" stroke="black" points="122.82,-42.79 114.05,-36.85 117.2,-46.96 122.82,-42.79"/>
</g>
</g>
</svg>
