<?xml version="1.0" encoding="UTF-8" standalone="no"?>
<svg
   version="1.1"
   viewBox="0 0 947.94751 50.141733"
   fill="none"
   stroke="none"
   stroke-linecap="square"
   stroke-miterlimit="10"
   id="svg102"
   sodipodi:docname="bits.svg"
   width="947.94751"
   height="50.141731"
   inkscape:version="1.2.2 (b0a84865, 2022-12-01)"
   xmlns:inkscape="http://www.inkscape.org/namespaces/inkscape"
   xmlns:sodipodi="http://sodipodi.sourceforge.net/DTD/sodipodi-0.dtd"
   xmlns="http://www.w3.org/2000/svg"
   xmlns:svg="http://www.w3.org/2000/svg">
  <defs
     id="defs106" />
  <sodipodi:namedview
     id="namedview104"
     pagecolor="#ffffff"
     bordercolor="#000000"
     borderopacity="0.25"
     inkscape:showpageshadow="2"
     inkscape:pageopacity="0.0"
     inkscape:pagecheckerboard="0"
     inkscape:deskcolor="#d1d1d1"
     showgrid="false"
     inkscape:zoom="1.259375"
     inkscape:cx="475.23573"
     inkscape:cy="25.409429"
     inkscape:window-width="1309"
     inkscape:window-height="456"
     inkscape:window-x="0"
     inkscape:window-y="0"
     inkscape:window-maximized="0"
     inkscape:current-layer="g100" />
  <clipPath
     id="p.0">
    <path
       d="M 0,0 H 960 V 76.80052 H 0 Z"
       clip-rule="nonzero"
       id="path71" />
  </clipPath>
  <g
     clip-path="url(#p.0)"
     id="g100"
     transform="translate(-4.435723,-12.535433)">
    <path
       shape-rendering="crispEdges"
       fill="#fff2cc"
       d="M 6.435723,14.535433 H 165.44884 v 46.14173 H 6.435723 Z"
       fill-rule="nonzero"
       id="path76" />
    <path
       shape-rendering="crispEdges"
       fill="#f4cccc"
       d="m 165.44885,14.535433 h 284.96326 v 46.14173 H 165.44885 Z"
       fill-rule="nonzero"
       id="path78" />
    <path
       shape-rendering="crispEdges"
       fill="#c9daf8"
       d="m 450.4121,14.535433 h 499.97113 v 46.14173 H 450.4121 Z"
       fill-rule="nonzero"
       id="path80" />
    <path
       stroke="#000000"
       stroke-width="4"
       stroke-linecap="butt"
       d="m 6.435723,12.535433 v 50.14173"
       fill-rule="nonzero"
       id="path82" />
    <path
       stroke="#000000"
       stroke-width="4"
       stroke-linecap="butt"
       d="m 165.44885,12.535433 v 50.14173"
       fill-rule="nonzero"
       id="path84" />
    <path
       stroke="#000000"
       stroke-width="4"
       stroke-linecap="butt"
       d="m 450.4121,12.535433 v 50.14173"
       fill-rule="nonzero"
       id="path86" />
    <path
       stroke="#000000"
       stroke-width="4"
       stroke-linecap="butt"
       d="m 950.38324,12.535433 v 50.14173"
       fill-rule="nonzero"
       id="path88" />
    <path
       stroke="#000000"
       stroke-width="4"
       stroke-linecap="butt"
       d="M 4.435723,14.535433 H 952.38322"
       fill-rule="nonzero"
       id="path90" />
    <path
       stroke="#000000"
       stroke-width="4"
       stroke-linecap="butt"
       d="M 4.435723,60.677166 H 952.38322"
       fill-rule="nonzero"
       id="path92" />
    <path
       fill="#000000"
       d="m 24.467247,41.674183 q -1.34375,0 -2.46875,-0.484375 -1.125,-0.5 -1.96875,-1.3125 l 0.9375,-1.09375 q 0.6875,0.6875 1.609375,1.109375 0.921875,0.421875 1.96875,0.421875 1.265625,0 1.96875,-0.53125 0.703125,-0.546875 0.703125,-1.40625 0,-0.65625 -0.296875,-1.046875 -0.28125,-0.390625 -0.78125,-0.640625 -0.5,-0.265625 -1.125,-0.53125 l -1.75,-0.765625 q -0.625,-0.265625 -1.234375,-0.65625 -0.59375,-0.390625 -1.015625,-1 -0.40625,-0.609375 -0.40625,-1.5 0,-0.937502 0.515625,-1.671877 0.515625,-0.734375 1.421875,-1.15625 0.921875,-0.421875 2.078125,-0.421875 1.15625,0 2.125,0.421875 0.96875,0.421875 1.640625,1.09375 l -0.828125,1.015625 q -0.59375,-0.546875 -1.328125,-0.84375 -0.71875,-0.3125 -1.671875,-0.3125 -1.0625,0 -1.71875,0.46875 -0.640625,0.46875 -0.640625,1.312502 0,0.578125 0.3125,0.953125 0.328125,0.375 0.828125,0.625 0.515625,0.234375 1.03125,0.453125 l 1.71875,0.75 q 0.765625,0.296875 1.375,0.71875 0.625,0.421875 0.96875,1.046875 0.359375,0.609375 0.359375,1.5 0,0.96875 -0.53125,1.765625 -0.515625,0.796875 -1.484375,1.265625 -0.96875,0.453125 -2.3125,0.453125 z m 11.396881,-0.21875 v -7.8125 h -4.21875 v -1.25 h 5.75 v 9.0625 z m 0.59375,-10.968752 q -0.515625,0 -0.875,-0.328125 -0.359375,-0.328125 -0.359375,-0.859375 0,-0.546875 0.359375,-0.875 0.359375,-0.328125 0.875,-0.328125 0.53125,0 0.875,0.328125 0.359375,0.328125 0.359375,0.875 0,0.53125 -0.359375,0.859375 -0.34375,0.328125 -0.875,0.328125 z m 10.225006,15.140627 q -1.3125,0 -2.25,-0.296875 -0.9375,-0.296875 -1.4375,-0.859375 -0.484375,-0.546875 -0.484375,-1.359375 0,-0.53125 0.375,-1.0625 0.390625,-0.53125 1.109375,-0.953125 v -0.0625 q -0.34375,-0.21875 -0.640625,-0.5625 -0.28125,-0.359375 -0.28125,-0.9375 0,-0.421875 0.28125,-0.875 0.28125,-0.46875 0.796875,-0.828125 v -0.0625 q -0.46875,-0.359375 -0.796875,-0.953125 -0.328125,-0.609375 -0.328125,-1.40625 0,-0.984375 0.5,-1.703125 0.5,-0.734375 1.3125,-1.140625 0.8125,-0.40625 1.75,-0.40625 0.765625,0 1.34375,0.234375 h 3.75 v 1.25 h -2.34375 q 0.3125,0.3125 0.53125,0.796875 0.234375,0.484375 0.234375,1.03125 0,0.96875 -0.46875,1.671875 -0.46875,0.6875 -1.265625,1.0625 -0.78125,0.375 -1.78125,0.375 -0.34375,0 -0.75,-0.07813 -0.40625,-0.09375 -0.765625,-0.25 -0.34375,0.203125 -0.53125,0.46875 -0.1875,0.25 -0.1875,0.5625 0,0.53125 0.484375,0.796875 0.5,0.25 1.40625,0.25 h 2.03125 q 1.75,0 2.59375,0.484375 0.859375,0.484375 0.859375,1.640625 0,0.84375 -0.625,1.5625 -0.609375,0.734375 -1.734375,1.171875 -1.125,0.4375 -2.6875,0.4375 z m -0.09375,-8.078125 q 0.578125,0 1.046875,-0.25 0.484375,-0.265625 0.765625,-0.75 0.28125,-0.484375 0.28125,-1.140625 0,-0.625 -0.28125,-1.09375 -0.28125,-0.484375 -0.765625,-0.75 -0.46875,-0.28125 -1.046875,-0.28125 -0.546875,0 -1.03125,0.28125 -0.46875,0.265625 -0.765625,0.75 -0.28125,0.46875 -0.28125,1.09375 0,0.65625 0.28125,1.140625 0.296875,0.484375 0.765625,0.75 0.484375,0.25 1.03125,0.25 z m 0.21875,6.96875 q 1.0625,0 1.828125,-0.265625 0.765625,-0.265625 1.171875,-0.671875 0.40625,-0.40625 0.40625,-0.875 0,-0.65625 -0.515625,-0.875 -0.515625,-0.21875 -1.546875,-0.21875 h -1.78125 q -0.390625,0 -0.734375,-0.04687 -0.34375,-0.03125 -0.640625,-0.109375 -0.640625,0.359375 -0.90625,0.734375 -0.25,0.390625 -0.25,0.78125 0,0.703125 0.75,1.125 0.75,0.421875 2.21875,0.421875 z m 7.287506,-3.0625 v -9.0625 h 1.265625 l 0.140625,1.546875 h 0.0625 q 0.71875,-0.765625 1.53125,-1.265625 0.828125,-0.515625 1.890625,-0.515625 1.609375,0 2.359375,0.9375 0.765625,0.9375 0.765625,2.71875 v 5.640625 H 60.59539 v -5.421875 q 0,-1.296875 -0.5,-1.921875 -0.484375,-0.625 -1.59375,-0.625 -0.8125,0 -1.453125,0.421875 -0.625,0.40625 -1.421875,1.21875 v 6.328125 z m 28.731262,3.28125 q -1.9375,-1.53125 -3.078125,-3.640625 -1.125,-2.125 -1.125,-4.828125 0,-2.703125 1.125,-4.828127 1.140625,-2.125 3.078125,-3.640625 l 0.84375,0.78125 q -1.875,1.5625 -2.765625,3.453127 -0.890625,1.890625 -0.890625,4.234375 0,2.359375 0.890625,4.234375 0.890625,1.875 2.765625,3.453125 z m 4.928131,-3.28125 v -1.265625 h 3.4375 v -8.765627 h -2.671875 v -1 q 0.703125,-0.09375 1.234375,-0.21875 0.546875,-0.125 1,-0.28125 0.453125,-0.171875 0.828125,-0.375 h 1.125 v 10.640627 h 3.125 v 1.265625 z m 26.543757,0.21875 q -0.67187,0 -1.4375,-0.3125 -0.75,-0.328125 -1.375,-0.90625 h -0.0625 l -0.125,1 h -1.23437 V 28.174181 h 1.53125 v 3.625 l -0.0625,1.750002 h 0.0625 q 0.60937,-0.640625 1.42187,-1.015625 0.8125,-0.375 1.625,-0.375 1.21875,0 2.0625,0.578125 0.84375,0.5625 1.26563,1.609375 0.4375,1.03125 0.4375,2.421875 0,1.546875 -0.57813,2.65625 -0.5625,1.09375 -1.5,1.671875 -0.92187,0.578125 -2.03125,0.578125 z m -0.23437,-1.28125 q 0.78125,0 1.40625,-0.421875 0.625,-0.4375 0.98437,-1.25 0.35938,-0.8125 0.35938,-1.9375 0,-0.984375 -0.26563,-1.734375 -0.25,-0.75 -0.8125,-1.171875 -0.5625,-0.421875 -1.46875,-0.421875 -0.625,0 -1.3125,0.328125 -0.67187,0.328125 -1.35937,1.03125 v 4.515625 q 0.65625,0.578125 1.3125,0.828125 0.67187,0.234375 1.15625,0.234375 z m 11.35001,1.0625 v -7.8125 h -4.21875 v -1.25 h 5.75 v 9.0625 z m 0.59375,-10.968752 q -0.51563,0 -0.875,-0.328125 -0.35938,-0.328125 -0.35938,-0.859375 0,-0.546875 0.35938,-0.875 0.35937,-0.328125 0.875,-0.328125 0.53125,0 0.875,0.328125 0.35937,0.328125 0.35937,0.875 0,0.53125 -0.35937,0.859375 -0.34375,0.328125 -0.875,0.328125 z m 12.05313,11.187502 q -1.3125,0 -2.07812,-0.46875 -0.76563,-0.484375 -1.09375,-1.3125 -0.32813,-0.84375 -0.32813,-1.96875 v -4.28125 h -2.5625 v -1.15625 l 2.625,-0.09375 0.20313,-2.921877 h 1.26562 v 2.921877 h 4.45313 v 1.25 h -4.45313 v 4.3125 q 0,0.796875 0.20313,1.359375 0.20312,0.5625 0.70312,0.84375 0.51563,0.265625 1.39063,0.265625 0.65625,0 1.17187,-0.109375 0.51563,-0.109375 1,-0.296875 l 0.34375,1.125 q -0.60937,0.21875 -1.29687,0.375 -0.6875,0.15625 -1.54688,0.15625 z m 6.95939,3.0625 -0.82813,-0.78125 q 1.85938,-1.578125 2.75,-3.453125 0.90625,-1.875 0.90625,-4.234375 0,-2.34375 -0.90625,-4.234375 -0.89062,-1.890627 -2.75,-3.453127 l 0.82813,-0.78125 q 1.96875,1.515625 3.07812,3.640625 1.125,2.125002 1.125,4.828127 0,2.703125 -1.125,4.828125 -1.10937,2.109375 -3.07812,3.640625 z"
       fill-rule="nonzero"
       id="path94" />
    <path
       fill="#000000"
       d="M 214.90855,41.455433 V 29.221056 h 7.57812 v 1.296875 h -6.01562 v 3.843752 h 5.07812 v 1.328125 h -5.07812 v 4.4375 h 6.20312 v 1.328125 z m 10.25626,0 3.45312,-4.703125 -3.1875,-4.359375 h 1.70313 l 1.4375,1.984375 q 0.23437,0.359375 0.51562,0.75 0.28125,0.390625 0.54688,0.78125 h 0.0781 q 0.23438,-0.390625 0.5,-0.78125 0.28125,-0.40625 0.51563,-0.78125 l 1.35937,-1.953125 h 1.625 l -3.21875,4.484375 3.46875,4.578125 h -1.6875 l -1.57812,-2.09375 q -0.28125,-0.390625 -0.59375,-0.8125 -0.29688,-0.4375 -0.60938,-0.828125 h -0.0625 q -0.28125,0.390625 -0.5625,0.8125 -0.28125,0.40625 -0.5625,0.828125 l -1.5,2.09375 z m 11.74063,3.828125 V 32.392933 h 1.26562 l 0.14063,1.15625 h 0.0469 q 0.64063,-0.59375 1.46875,-0.984375 0.82813,-0.40625 1.67188,-0.40625 1.23437,0 2.0625,0.578125 0.82812,0.5625 1.25,1.609375 0.4375,1.03125 0.4375,2.4375 0,1.53125 -0.57813,2.640625 -0.57812,1.09375 -1.51562,1.671875 -0.9375,0.578125 -2.03125,0.578125 -0.625,0 -1.35938,-0.296875 -0.73437,-0.3125 -1.34375,-0.875 h -0.0625 l 0.0781,1.71875 v 3.0625 z m 3.95312,-4.890625 q 0.8125,0 1.4375,-0.421875 0.64063,-0.4375 1,-1.25 0.35938,-0.8125 0.35938,-1.9375 0,-0.984375 -0.26563,-1.734375 -0.25,-0.75 -0.8125,-1.171875 -0.5625,-0.421875 -1.46875,-0.421875 -0.625,0 -1.3125,0.328125 -0.67187,0.328125 -1.35937,1.03125 v 4.515625 q 0.65625,0.578125 1.3125,0.828125 0.67187,0.234375 1.10937,0.234375 z m 11.10001,1.28125 q -1.1875,0 -2.20313,-0.546875 -1.01562,-0.5625 -1.64062,-1.625 -0.625,-1.0625 -0.625,-2.5625 0,-1.53125 0.625,-2.59375 0.625,-1.0625 1.64062,-1.625 1.01563,-0.5625 2.20313,-0.5625 1.20312,0 2.21875,0.5625 1.01562,0.5625 1.64062,1.625 0.62499,1.0625 0.62499,2.59375 0,1.5 -0.62499,2.5625 -0.625,1.0625 -1.64062,1.625 -1.01563,0.546875 -2.21875,0.546875 z m 0,-1.265625 q 0.875,0 1.53125,-0.4375 0.65625,-0.4375 1,-1.21875 0.35937,-0.78125 0.35937,-1.8125 0,-1.046875 -0.35937,-1.828125 -0.34375,-0.796875 -1,-1.234375 -0.65625,-0.4375 -1.53125,-0.4375 -0.875,0 -1.51563,0.4375 -0.64062,0.4375 -1.01562,1.234375 -0.35938,0.78125 -0.35938,1.828125 0,1.03125 0.35938,1.8125 0.375,0.78125 1.01562,1.21875 0.64063,0.4375 1.51563,0.4375 z m 7.33436,1.046875 v -9.0625 h 1.26563 l 0.14062,1.546875 h 0.0625 q 0.71875,-0.765625 1.53125,-1.265625 0.82813,-0.515625 1.89063,-0.515625 1.60937,0 2.35937,0.9375 0.76563,0.9375 0.76563,2.71875 v 5.640625 h -1.51563 v -5.421875 q 0,-1.296875 -0.5,-1.921875 -0.48437,-0.625 -1.59375,-0.625 -0.8125,0 -1.45312,0.421875 -0.625,0.40625 -1.42188,1.21875 v 6.328125 z m 15.61563,0.21875 q -1.35937,0 -2.46875,-0.546875 -1.10937,-0.5625 -1.76562,-1.640625 -0.65625,-1.078125 -0.65625,-2.578125 0,-1.484375 0.65625,-2.546875 0.65625,-1.0625 1.70312,-1.625 1.0625,-0.578125 2.26563,-0.578125 1.3125,0 2.23437,0.53125 0.92188,0.53125 1.40625,1.484375 0.5,0.953125 0.5,2.25 0,0.25 -0.0156,0.5 -0.0156,0.234375 -0.0469,0.421875 h -7.67187 v -1.1875 h 6.75 l -0.39063,0.421875 q 0,-1.59375 -0.73437,-2.390625 -0.73438,-0.8125 -1.98438,-0.8125 -0.84375,0 -1.5625,0.421875 -0.71875,0.40625 -1.15625,1.1875 -0.42187,0.78125 -0.42187,1.921875 0,1.171875 0.46875,1.953125 0.46875,0.78125 1.26562,1.1875 0.79688,0.40625 1.8125,0.40625 0.8125,0 1.46875,-0.234375 0.67188,-0.234375 1.29688,-0.625 l 0.54687,1 q -0.65625,0.453125 -1.53125,0.765625 -0.875,0.3125 -1.96875,0.3125 z m 6.77189,-0.21875 v -9.0625 h 1.26562 l 0.14063,1.546875 h 0.0625 q 0.71875,-0.765625 1.53125,-1.265625 0.82812,-0.515625 1.89062,-0.515625 1.60938,0 2.35938,0.9375 0.76562,0.9375 0.76562,2.71875 v 5.640625 h -1.51562 v -5.421875 q 0,-1.296875 -0.5,-1.921875 -0.48438,-0.625 -1.59375,-0.625 -0.8125,0 -1.45313,0.421875 -0.625,0.40625 -1.42187,1.21875 v 6.328125 z m 16.80313,0.21875 q -1.3125,0 -2.07813,-0.46875 -0.76562,-0.484375 -1.09375,-1.3125 -0.32812,-0.84375 -0.32812,-1.96875 v -4.28125 h -2.5625 v -1.15625 l 2.625,-0.09375 0.20312,-2.921877 h 1.26563 v 2.921877 h 4.45312 v 1.25 h -4.45312 v 4.3125 q 0,0.796875 0.20312,1.359375 0.20313,0.5625 0.70313,0.84375 0.51562,0.265625 1.39062,0.265625 0.65625,0 1.17188,-0.109375 0.51562,-0.109375 1,-0.296875 l 0.34375,1.125 q -0.60938,0.21875 -1.29688,0.375 -0.6875,0.15625 -1.54687,0.15625 z m 23.12188,3.0625 q -1.9375,-1.53125 -3.07812,-3.640625 -1.125,-2.125 -1.125,-4.828125 0,-2.703125 1.125,-4.828127 1.14062,-2.125 3.07812,-3.640625 l 0.84375,0.78125 q -1.875,1.5625 -2.76562,3.453127 -0.89063,1.890625 -0.89063,4.234375 0,2.359375 0.89063,4.234375 0.89062,1.875 2.76562,3.453125 z m 8.75626,-3.0625 q -1.34375,0 -2.32812,-0.40625 -0.98438,-0.421875 -1.51563,-1.171875 -0.53125,-0.75 -0.53125,-1.6875 0,-0.8125 0.375,-1.421875 0.375,-0.609375 0.95313,-1.015625 0.59375,-0.421875 1.23437,-0.734375 v -0.0625 q -0.75,-0.484375 -1.28125,-1.171875 -0.53125,-0.6875 -0.53125,-1.609375 0,-0.921877 0.46875,-1.609377 0.48438,-0.6875 1.3125,-1.0625 0.82813,-0.390625 1.89063,-0.390625 1.73437,0 2.71875,0.890625 0.98437,0.875 0.98437,2.281252 0,0.84375 -0.53125,1.578125 -0.53125,0.734375 -1.28125,1.25 v 0.07813 q 0.65625,0.34375 1.1875,0.734375 0.53125,0.390625 0.82813,0.953125 0.3125,0.546875 0.3125,1.40625 0,0.875 -0.5,1.59375 -0.48438,0.71875 -1.4375,1.15625 -0.95313,0.421875 -2.32813,0.421875 z m 0.92188,-6.71875 q 1.5,-1.078125 1.5,-2.375 0,-0.578125 -0.28125,-1.046877 -0.28125,-0.484375 -0.8125,-0.765625 -0.53125,-0.296875 -1.3125,-0.296875 -0.96875,0 -1.60938,0.53125 -0.625,0.53125 -0.625,1.390627 0,0.703125 0.40625,1.171875 0.42188,0.46875 1.14063,0.796875 0.71875,0.328125 1.59375,0.59375 z m -0.89063,5.578125 q 1.32813,0 2.04688,-0.578125 0.71875,-0.578125 0.71875,-1.5 0,-0.625 -0.29688,-1.03125 -0.28125,-0.421875 -0.79687,-0.703125 -0.5,-0.296875 -1.1875,-0.53125 -0.67188,-0.25 -1.45313,-0.515625 -0.57812,0.3125 -1.04687,0.6875 -0.46875,0.375 -0.73438,0.84375 -0.25,0.46875 -0.25,1.0625 0,0.65625 0.35938,1.171875 0.35937,0.5 1.03125,0.796875 0.6875,0.296875 1.60937,0.296875 z m 22.68439,1.140625 q -0.67188,0 -1.4375,-0.3125 -0.75,-0.328125 -1.375,-0.90625 h -0.0625 l -0.125,1 h -1.23438 V 28.174181 h 1.53125 v 3.625 l -0.0625,1.750002 h 0.0625 q 0.60938,-0.640625 1.42188,-1.015625 0.8125,-0.375 1.625,-0.375 1.21875,0 2.0625,0.578125 0.84375,0.5625 1.26562,1.609375 0.4375,1.03125 0.4375,2.421875 0,1.546875 -0.57812,2.65625 -0.5625,1.09375 -1.5,1.671875 -0.92188,0.578125 -2.03125,0.578125 z m -0.23438,-1.28125 q 0.78125,0 1.40625,-0.421875 0.625,-0.4375 0.98438,-1.25 0.35937,-0.8125 0.35937,-1.9375 0,-0.984375 -0.26562,-1.734375 -0.25,-0.75 -0.8125,-1.171875 -0.5625,-0.421875 -1.46875,-0.421875 -0.625,0 -1.3125,0.328125 -0.67188,0.328125 -1.35938,1.03125 v 4.515625 q 0.65625,0.578125 1.3125,0.828125 0.67188,0.234375 1.15625,0.234375 z m 11.35001,1.0625 v -7.8125 h -4.21875 v -1.25 h 5.75 v 9.0625 z m 0.59375,-10.968752 q -0.51563,0 -0.875,-0.328125 -0.35938,-0.328125 -0.35938,-0.859375 0,-0.546875 0.35938,-0.875 0.35937,-0.328125 0.875,-0.328125 0.53125,0 0.875,0.328125 0.35937,0.328125 0.35937,0.875 0,0.53125 -0.35937,0.859375 -0.34375,0.328125 -0.875,0.328125 z m 12.05313,11.187502 q -1.3125,0 -2.07813,-0.46875 -0.76562,-0.484375 -1.09375,-1.3125 -0.32812,-0.84375 -0.32812,-1.96875 v -4.28125 h -2.5625 v -1.15625 l 2.625,-0.09375 0.20312,-2.921877 h 1.26563 v 2.921877 h 4.45312 v 1.25 h -4.45312 v 4.3125 q 0,0.796875 0.20312,1.359375 0.20313,0.5625 0.70313,0.84375 0.51562,0.265625 1.39062,0.265625 0.65625,0 1.17188,-0.109375 0.51562,-0.109375 1,-0.296875 l 0.34375,1.125 q -0.60938,0.21875 -1.29688,0.375 -0.6875,0.15625 -1.54687,0.15625 z m 9.63126,0 q -1.32813,0 -2.48438,-0.421875 -1.15625,-0.4375 -1.96875,-0.984375 l 0.70313,-1.015625 q 0.78125,0.5625 1.73437,0.90625 0.95313,0.328125 2.20313,0.328125 1.15625,0 1.71875,-0.421875 0.57812,-0.4375 0.57812,-1 0,-0.265625 -0.10937,-0.484375 -0.0937,-0.21875 -0.39063,-0.421875 -0.28125,-0.203125 -0.84375,-0.390625 -0.5625,-0.1875 -1.5,-0.375 -1.76562,-0.375 -2.65625,-1 -0.875,-0.640625 -0.875,-1.65625 0,-1.09375 0.9375,-1.828125 0.95313,-0.75 2.82813,-0.75 1.04687,0 2.01562,0.359375 0.96875,0.34375 1.64063,0.796875 l -0.75,1 q -0.60938,-0.453125 -1.40625,-0.703125 -0.78125,-0.25 -1.64063,-0.25 -0.78125,0 -1.23437,0.171875 -0.45313,0.171875 -0.65625,0.484375 -0.1875,0.296875 -0.1875,0.640625 0,0.578125 0.625,0.90625 0.625,0.328125 2,0.609375 1.51562,0.3125 2.32812,0.71875 0.8125,0.390625 1.10938,0.890625 0.3125,0.5 0.3125,1.1875 0,0.75 -0.46875,1.359375 -0.46875,0.609375 -1.35938,0.984375 -0.89062,0.359375 -2.20312,0.359375 z m 8.52188,3.0625 -0.82813,-0.78125 q 1.85938,-1.578125 2.75,-3.453125 0.90625,-1.875 0.90625,-4.234375 0,-2.34375 -0.90625,-4.234375 -0.89062,-1.890627 -2.75,-3.453127 l 0.82813,-0.78125 q 1.96875,1.515625 3.07812,3.640625 1.125,2.125002 1.125,4.828127 0,2.703125 -1.125,4.828125 -1.10937,2.109375 -3.07812,3.640625 z"
       fill-rule="nonzero"
       id="path96" />
    <path
       fill="#000000"
       d="M 602.13824,41.455433 V 29.221056 h 7.51562 v 1.296875 h -5.95312 v 4.140627 h 5.03125 v 1.3125 h -5.03125 v 5.484375 z m 11.4281,0 v -9.0625 h 1.28125 l 0.125,2.140625 h 0.0469 q 0.71875,-1.09375 1.76562,-1.734375 1.04688,-0.640625 2.29688,-0.640625 0.5,0 0.9375,0.09375 0.4375,0.07813 0.84375,0.28125 l -0.35938,1.328125 q -0.45312,-0.171875 -0.79687,-0.234375 -0.32813,-0.07813 -0.875,-0.07813 -1.03125,0 -1.96875,0.59375 -0.9375,0.578125 -1.76563,2 v 5.3125 z m 13.06879,0.21875 q -0.84375,0 -1.5625,-0.296875 -0.70313,-0.3125 -1.10938,-0.890625 -0.40625,-0.578125 -0.40625,-1.375 0,-1.53125 1.53125,-2.328125 1.53125,-0.796875 5.03125,-1.078125 -0.0156,-0.609375 -0.25,-1.125 -0.23437,-0.53125 -0.76562,-0.828125 -0.51563,-0.3125 -1.39063,-0.3125 -0.57812,0 -1.15625,0.15625 -0.5625,0.15625 -1.07812,0.40625 -0.51563,0.25 -0.9375,0.515625 l -0.59375,-1.046875 q 0.4375,-0.296875 1.07812,-0.609375 0.65625,-0.3125 1.39063,-0.5 0.75,-0.203125 1.5625,-0.203125 1.25,0 2.0625,0.46875 0.8125,0.46875 1.20312,1.296875 0.40625,0.828125 0.40625,1.96875 v 5.5625 h -1.25 l -0.125,-1.234375 h -0.0625 q -0.75,0.59375 -1.6875,1.03125 -0.92187,0.421875 -1.89062,0.421875 z m 0.40625,-1.21875 q 0.78125,0 1.54687,-0.359375 0.76563,-0.359375 1.53125,-0.984375 v -2.390625 q -1.9375,0.15625 -3.04687,0.46875 -1.10938,0.296875 -1.57813,0.75 -0.45312,0.453125 -0.45312,1.046875 0,0.515625 0.28125,0.84375 0.28125,0.3125 0.73437,0.46875 0.46875,0.15625 0.98438,0.15625 z m 12.64685,1.21875 q -1.42188,0 -2.54688,-0.546875 -1.125,-0.5625 -1.76562,-1.625 -0.64063,-1.0625 -0.64063,-2.5625 0,-1.53125 0.6875,-2.59375 0.6875,-1.0625 1.82813,-1.625 1.15625,-0.5625 2.53125,-0.5625 1.125,0 1.9375,0.40625 0.8125,0.390625 1.35937,0.921875 l -0.76562,0.984375 q -0.54688,-0.484375 -1.15625,-0.75 -0.59375,-0.28125 -1.3125,-0.28125 -1.04688,0 -1.85938,0.4375 -0.79687,0.4375 -1.23437,1.234375 -0.4375,0.78125 -0.4375,1.828125 0,1.03125 0.42187,1.8125 0.4375,0.78125 1.21875,1.21875 0.79688,0.4375 1.84375,0.4375 0.84375,0 1.54688,-0.328125 0.70312,-0.34375 1.25,-0.8125 l 0.70312,1 q -0.75,0.671875 -1.67187,1.046875 -0.92188,0.359375 -1.9375,0.359375 z m 12.08441,0 q -1.3125,0 -2.07812,-0.46875 -0.76563,-0.484375 -1.09375,-1.3125 -0.32813,-0.84375 -0.32813,-1.96875 v -4.28125 h -2.5625 v -1.15625 l 2.625,-0.09375 0.20313,-2.921877 h 1.26562 v 2.921877 h 4.45313 v 1.25 h -4.45313 v 4.3125 q 0,0.796875 0.20313,1.359375 0.20312,0.5625 0.70312,0.84375 0.51563,0.265625 1.39063,0.265625 0.65625,0 1.17187,-0.109375 0.51563,-0.109375 1,-0.296875 l 0.34375,1.125 q -0.60937,0.21875 -1.29687,0.375 -0.6875,0.15625 -1.54688,0.15625 z m 9.7406,-0.21875 v -7.8125 h -4.21875 v -1.25 h 5.75 v 9.0625 z m 0.59375,-10.968752 q -0.51562,0 -0.875,-0.328125 -0.35937,-0.328125 -0.35937,-0.859375 0,-0.546875 0.35937,-0.875 0.35938,-0.328125 0.875,-0.328125 0.53125,0 0.875,0.328125 0.35938,0.328125 0.35938,0.875 0,0.53125 -0.35938,0.859375 -0.34375,0.328125 -0.875,0.328125 z m 10.30316,11.187502 q -1.1875,0 -2.20312,-0.546875 -1.01563,-0.5625 -1.64063,-1.625 -0.625,-1.0625 -0.625,-2.5625 0,-1.53125 0.625,-2.59375 0.625,-1.0625 1.64063,-1.625 1.01562,-0.5625 2.20312,-0.5625 1.20313,0 2.21875,0.5625 1.01563,0.5625 1.64063,1.625 0.625,1.0625 0.625,2.59375 0,1.5 -0.625,2.5625 -0.625,1.0625 -1.64063,1.625 -1.01562,0.546875 -2.21875,0.546875 z m 0,-1.265625 q 0.875,0 1.53125,-0.4375 0.65625,-0.4375 1,-1.21875 0.35938,-0.78125 0.35938,-1.8125 0,-1.046875 -0.35938,-1.828125 -0.34375,-0.796875 -1,-1.234375 -0.65625,-0.4375 -1.53125,-0.4375 -0.875,0 -1.51562,0.4375 -0.64063,0.4375 -1.01563,1.234375 -0.35937,0.78125 -0.35937,1.828125 0,1.03125 0.35937,1.8125 0.375,0.78125 1.01563,1.21875 0.64062,0.4375 1.51562,0.4375 z m 7.33435,1.046875 v -9.0625 h 1.26563 l 0.14062,1.546875 h 0.0625 q 0.71875,-0.765625 1.53125,-1.265625 0.82813,-0.515625 1.89063,-0.515625 1.60937,0 2.35937,0.9375 0.76563,0.9375 0.76563,2.71875 v 5.640625 h -1.51563 v -5.421875 q 0,-1.296875 -0.5,-1.921875 -0.48437,-0.625 -1.59375,-0.625 -0.8125,0 -1.45312,0.421875 -0.625,0.40625 -1.42188,1.21875 v 6.328125 z m 28.73127,3.28125 q -1.9375,-1.53125 -3.07813,-3.640625 -1.125,-2.125 -1.125,-4.828125 0,-2.703125 1.125,-4.828127 1.14063,-2.125 3.07813,-3.640625 l 0.84375,0.78125 q -1.875,1.5625 -2.76563,3.453127 -0.89062,1.890625 -0.89062,4.234375 0,2.359375 0.89062,4.234375 0.89063,1.875 2.76563,3.453125 z m 4.47503,-3.28125 v -0.921875 q 2.01563,-1.765625 3.40625,-3.109375 1.39063,-1.359375 2.10938,-2.4375 0.73437,-1.09375 0.73437,-2.078125 0,-1.031252 -0.64062,-1.671877 -0.625,-0.65625 -1.95313,-0.65625 -0.84375,0 -1.5625,0.40625 -0.70312,0.40625 -1.28125,1.031252 l -0.89062,-0.875002 q 0.8125,-0.828125 1.73437,-1.3125 0.92188,-0.5 2.1875,-0.5 1.20313,0 2.0625,0.4375 0.875,0.4375 1.34375,1.21875 0.46875,0.78125 0.46875,1.843752 0,1.125 -0.6875,2.265625 -0.6875,1.140625 -1.9375,2.40625 -1.23437,1.25 -2.85937,2.734375 0.5625,-0.04687 1.125,-0.07813 0.5625,-0.03125 1.10937,-0.03125 h 3.90625 v 1.328125 z m 15.19373,0.21875 q -1.03125,0 -1.84375,-0.234375 -0.79688,-0.25 -1.40625,-0.609375 -0.59375,-0.375 -1.04688,-0.828125 l 0.78125,-1.015625 q 0.59375,0.5625 1.4375,1 0.84375,0.421875 1.98438,0.421875 0.8125,0 1.45312,-0.265625 0.65625,-0.265625 1.01563,-0.765625 0.375,-0.5 0.375,-1.15625 0,-0.703125 -0.4375,-1.234375 -0.42188,-0.53125 -1.375,-0.828125 -0.9375,-0.296875 -2.51563,-0.296875 v -1.171875 q 1.42188,0 2.28125,-0.296875 0.85938,-0.3125 1.23438,-0.796875 0.39062,-0.5 0.39062,-1.140625 0,-0.875002 -0.67187,-1.375002 -0.65625,-0.5 -1.75,-0.5 -0.84375,0 -1.60938,0.34375 -0.75,0.328125 -1.32812,0.875 l -0.8125,-0.984375 q 0.73437,-0.640625 1.6875,-1.0625 0.96875,-0.421875 2.10937,-0.421875 1.125,0 2,0.359375 0.89063,0.34375 1.40625,1.015625 0.53125,0.671875 0.53125,1.640627 0,1.09375 -0.71875,1.78125 -0.71875,0.6875 -1.8125,1.0625 v 0.07813 q 0.78125,0.15625 1.45313,0.5625 0.6875,0.40625 1.07812,1.015625 0.40625,0.609375 0.40625,1.4375 0,1.0625 -0.59375,1.828125 -0.57812,0.75 -1.54687,1.15625 -0.96875,0.40625 -2.15625,0.40625 z m 22.99689,0 q -0.67188,0 -1.4375,-0.3125 -0.75,-0.328125 -1.375,-0.90625 h -0.0625 l -0.125,1 h -1.23438 V 28.174181 h 1.53125 v 3.625 l -0.0625,1.750002 h 0.0625 q 0.60938,-0.640625 1.42188,-1.015625 0.8125,-0.375 1.625,-0.375 1.21875,0 2.0625,0.578125 0.84375,0.5625 1.26562,1.609375 0.4375,1.03125 0.4375,2.421875 0,1.546875 -0.57812,2.65625 -0.5625,1.09375 -1.5,1.671875 -0.92188,0.578125 -2.03125,0.578125 z m -0.23438,-1.28125 q 0.78125,0 1.40625,-0.421875 0.625,-0.4375 0.98438,-1.25 0.35937,-0.8125 0.35937,-1.9375 0,-0.984375 -0.26562,-1.734375 -0.25,-0.75 -0.8125,-1.171875 -0.5625,-0.421875 -1.46875,-0.421875 -0.625,0 -1.3125,0.328125 -0.67188,0.328125 -1.35938,1.03125 v 4.515625 q 0.65625,0.578125 1.3125,0.828125 0.67188,0.234375 1.15625,0.234375 z m 11.35004,1.0625 v -7.8125 h -4.21875 v -1.25 h 5.75 v 9.0625 z m 0.59375,-10.968752 q -0.51563,0 -0.875,-0.328125 -0.35938,-0.328125 -0.35938,-0.859375 0,-0.546875 0.35938,-0.875 0.35937,-0.328125 0.875,-0.328125 0.53125,0 0.875,0.328125 0.35937,0.328125 0.35937,0.875 0,0.53125 -0.35937,0.859375 -0.34375,0.328125 -0.875,0.328125 z m 12.0531,11.187502 q -1.3125,0 -2.07813,-0.46875 -0.76562,-0.484375 -1.09375,-1.3125 -0.32812,-0.84375 -0.32812,-1.96875 v -4.28125 h -2.5625 v -1.15625 l 2.625,-0.09375 0.20312,-2.921877 h 1.26563 v 2.921877 h 4.45312 v 1.25 h -4.45312 v 4.3125 q 0,0.796875 0.20312,1.359375 0.20313,0.5625 0.70313,0.84375 0.51562,0.265625 1.39062,0.265625 0.65625,0 1.17188,-0.109375 0.51562,-0.109375 1,-0.296875 l 0.34375,1.125 q -0.60938,0.21875 -1.29688,0.375 -0.6875,0.15625 -1.54687,0.15625 z m 9.63129,0 q -1.32813,0 -2.48438,-0.421875 -1.15625,-0.4375 -1.96875,-0.984375 l 0.70313,-1.015625 q 0.78125,0.5625 1.73437,0.90625 0.95313,0.328125 2.20313,0.328125 1.15625,0 1.71875,-0.421875 0.57812,-0.4375 0.57812,-1 0,-0.265625 -0.10937,-0.484375 -0.0937,-0.21875 -0.39063,-0.421875 -0.28125,-0.203125 -0.84375,-0.390625 -0.5625,-0.1875 -1.5,-0.375 -1.76562,-0.375 -2.65625,-1 -0.875,-0.640625 -0.875,-1.65625 0,-1.09375 0.9375,-1.828125 0.95313,-0.75 2.82813,-0.75 1.04687,0 2.01562,0.359375 0.96875,0.34375 1.64063,0.796875 l -0.75,1 q -0.60938,-0.453125 -1.40625,-0.703125 -0.78125,-0.25 -1.64063,-0.25 -0.78125,0 -1.23437,0.171875 -0.45313,0.171875 -0.65625,0.484375 -0.1875,0.296875 -0.1875,0.640625 0,0.578125 0.625,0.90625 0.625,0.328125 2,0.609375 1.51562,0.3125 2.32812,0.71875 0.8125,0.390625 1.10938,0.890625 0.3125,0.5 0.3125,1.1875 0,0.75 -0.46875,1.359375 -0.46875,0.609375 -1.35938,0.984375 -0.89062,0.359375 -2.20312,0.359375 z m 8.52185,3.0625 -0.82813,-0.78125 q 1.85938,-1.578125 2.75,-3.453125 0.90625,-1.875 0.90625,-4.234375 0,-2.34375 -0.90625,-4.234375 -0.89062,-1.890627 -2.75,-3.453127 l 0.82813,-0.78125 q 1.96875,1.515625 3.07812,3.640625 1.125,2.125002 1.125,4.828127 0,2.703125 -1.125,4.828125 -1.10937,2.109375 -3.07812,3.640625 z"
       fill-rule="nonzero"
       id="path98" />
  </g>
</svg>
