<?xml version="1.0" encoding="UTF-8" standalone="no"?>
<!DOCTYPE svg PUBLIC "-//W3C//DTD SVG 1.1//EN"
 "http://www.w3.org/Graphics/SVG/1.1/DTD/svg11.dtd">
<!-- Generated by graphviz version 13.1.2 (20250808.2320)
 -->
<!-- Pages: 1 -->
<svg width="289pt" height="332pt"
 viewBox="0.00 0.00 289.00 332.00" xmlns="http://www.w3.org/2000/svg" xmlns:xlink="http://www.w3.org/1999/xlink">
<g id="graph0" class="graph" transform="scale(1 1) rotate(0) translate(4 328)">
<polygon fill="white" stroke="none" points="-4,4 -4,-328 284.96,-328 284.96,4 -4,4"/>
<!-- foo.cmi -->
<g id="node1" class="node">
<title>foo.cmi</title>
<ellipse fill="none" stroke="black" cx="80.37" cy="-90" rx="40.09" ry="18"/>
<text xml:space="preserve" text-anchor="middle" x="80.37" y="-84.95" font-family="Times New Roman,serif" font-size="14.00">foo.cmi</text>
</g>
<!-- foo.mli -->
<g id="node2" class="node">
<title>foo.mli</title>
<ellipse fill="none" stroke="black" cx="80.37" cy="-18" rx="38.56" ry="18"/>
<text xml:space="preserve" text-anchor="middle" x="80.37" y="-12.95" font-family="Times New Roman,serif" font-size="14.00">foo.mli</text>
</g>
<!-- foo.cmi&#45;&gt;foo.mli -->
<g id="edge1" class="edge">
<title>foo.cmi&#45;&gt;foo.mli</title>
<path fill="none" stroke="black" d="M80.37,-71.7C80.37,-64.41 80.37,-55.73 80.37,-47.54"/>
<polygon fill="black" stroke="black" points="83.87,-47.62 80.37,-37.62 76.87,-47.62 83.87,-47.62"/>
</g>
<!-- foo.cmx -->
<g id="node3" class="node">
<title>foo.cmx</title>
<ellipse fill="none" stroke="black" cx="224.37" cy="-162" rx="42.14" ry="18"/>
<text xml:space="preserve" text-anchor="middle" x="224.37" y="-156.95" font-family="Times New Roman,serif" font-size="14.00">foo.cmx</text>
</g>
<!-- foo.cmx&#45;&gt;foo.cmi -->
<g id="edge2" class="edge">
<title>foo.cmx&#45;&gt;foo.cmi</title>
<path fill="none" stroke="black" d="M197.28,-147.83C174.61,-136.81 142.05,-120.99 117.05,-108.83"/>
<polygon fill="black" stroke="black" points="118.73,-105.76 108.21,-104.53 115.67,-112.05 118.73,-105.76"/>
</g>
<!-- foo.ml -->
<g id="node4" class="node">
<title>foo.ml</title>
<ellipse fill="none" stroke="black" cx="199.37" cy="-90" rx="36" ry="18"/>
<text xml:space="preserve" text-anchor="middle" x="199.37" y="-84.95" font-family="Times New Roman,serif" font-size="14.00">foo.ml</text>
</g>
<!-- foo.cmx&#45;&gt;foo.ml -->
<g id="edge3" class="edge">
<title>foo.cmx&#45;&gt;foo.ml</title>
<path fill="none" stroke="black" d="M218.19,-143.7C215.49,-136.15 212.27,-127.12 209.25,-118.68"/>
<polygon fill="black" stroke="black" points="212.64,-117.77 205.99,-109.53 206.05,-120.12 212.64,-117.77"/>
</g>
<!-- foo.exe -->
<g id="node5" class="node">
<title>foo.exe</title>
<ellipse fill="none" stroke="black" cx="165.37" cy="-306" rx="38.56" ry="18"/>
<text xml:space="preserve" text-anchor="middle" x="165.37" y="-300.95" font-family="Times New Roman,serif" font-size="14.00">foo.exe</text>
</g>
<!-- foo.exe&#45;&gt;foo.cmx -->
<g id="edge4" class="edge">
<title>foo.exe&#45;&gt;foo.cmx</title>
<path fill="none" stroke="black" d="M200.78,-298.29C226.35,-291.39 259.13,-277.85 275.37,-252 283.88,-238.45 281.35,-230.84 275.37,-216 270.7,-204.42 262.16,-193.96 253.39,-185.44"/>
<polygon fill="black" stroke="black" points="255.92,-183.01 246.15,-178.92 251.23,-188.22 255.92,-183.01"/>
</g>
<!-- foo.o -->
<g id="node6" class="node">
<title>foo.o</title>
<ellipse fill="none" stroke="black" cx="30.37" cy="-162" rx="30.37" ry="18"/>
<text xml:space="preserve" text-anchor="middle" x="30.37" y="-156.95" font-family="Times New Roman,serif" font-size="14.00">foo.o</text>
</g>
<!-- foo.exe&#45;&gt;foo.o -->
<g id="edge5" class="edge">
<title>foo.exe&#45;&gt;foo.o</title>
<path fill="none" stroke="black" d="M134.87,-294.78C113.52,-286.26 85.65,-272.24 67.37,-252 51.86,-234.83 42.31,-210.23 36.8,-191.25"/>
<polygon fill="black" stroke="black" points="40.23,-190.5 34.27,-181.73 33.46,-192.3 40.23,-190.5"/>
</g>
<!-- main.cmx -->
<g id="node7" class="node">
<title>main.cmx</title>
<ellipse fill="none" stroke="black" cx="217.37" cy="-234" rx="48.79" ry="18"/>
<text xml:space="preserve" text-anchor="middle" x="217.37" y="-228.95" font-family="Times New Roman,serif" font-size="14.00">main.cmx</text>
</g>
<!-- foo.exe&#45;&gt;main.cmx -->
<g id="edge6" class="edge">
<title>foo.exe&#45;&gt;main.cmx</title>
<path fill="none" stroke="black" d="M177.43,-288.76C183.64,-280.4 191.36,-270.02 198.35,-260.61"/>
<polygon fill="black" stroke="black" points="200.95,-262.96 204.11,-252.85 195.34,-258.79 200.95,-262.96"/>
</g>
<!-- main.o -->
<g id="node8" class="node">
<title>main.o</title>
<ellipse fill="none" stroke="black" cx="113.37" cy="-234" rx="37.02" ry="18"/>
<text xml:space="preserve" text-anchor="middle" x="113.37" y="-228.95" font-family="Times New Roman,serif" font-size="14.00">main.o</text>
</g>
<!-- foo.exe&#45;&gt;main.o -->
<g id="edge7" class="edge">
<title>foo.exe&#45;&gt;main.o</title>
<path fill="none" stroke="black" d="M153.31,-288.76C147.01,-280.28 139.16,-269.71 132.09,-260.2"/>
<polygon fill="black" stroke="black" points="135.04,-258.3 126.26,-252.36 129.42,-262.48 135.04,-258.3"/>
</g>
<!-- foo.o&#45;&gt;foo.cmi -->
<g id="edge8" class="edge">
<title>foo.o&#45;&gt;foo.cmi</title>
<path fill="none" stroke="black" d="M41.71,-145.12C47.76,-136.64 55.35,-126.02 62.2,-116.43"/>
<polygon fill="black" stroke="black" points="64.88,-118.71 67.84,-108.54 59.18,-114.64 64.88,-118.71"/>
</g>
<!-- foo.o&#45;&gt;foo.ml -->
<g id="edge9" class="edge">
<title>foo.o&#45;&gt;foo.ml</title>
<path fill="none" stroke="black" d="M54.25,-150.48C59.24,-148.32 64.47,-146.07 69.37,-144 100.22,-130.99 135.39,-116.68 161.37,-106.21"/>
<polygon fill="black" stroke="black" points="162.52,-109.52 170.49,-102.54 159.91,-103.03 162.52,-109.52"/>
</g>
<!-- main.cmx&#45;&gt;foo.cmx -->
<g id="edge10" class="edge">
<title>main.cmx&#45;&gt;foo.cmx</title>
<path fill="none" stroke="black" d="M219.1,-215.7C219.83,-208.41 220.69,-199.73 221.51,-191.54"/>
<polygon fill="black" stroke="black" points="224.99,-191.91 222.51,-181.61 218.03,-191.21 224.99,-191.91"/>
</g>
<!-- main.ml -->
<g id="node9" class="node">
<title>main.ml</title>
<ellipse fill="none" stroke="black" cx="121.37" cy="-162" rx="42.65" ry="18"/>
<text xml:space="preserve" text-anchor="middle" x="121.37" y="-156.95" font-family="Times New Roman,serif" font-size="14.00">main.ml</text>
</g>
<!-- main.cmx&#45;&gt;main.ml -->
<g id="edge11" class="edge">
<title>main.cmx&#45;&gt;main.ml</title>
<path fill="none" stroke="black" d="M196.06,-217.46C182.83,-207.82 165.63,-195.28 151.07,-184.66"/>
<polygon fill="black" stroke="black" points="153.32,-181.97 143.18,-178.9 149.2,-187.62 153.32,-181.97"/>
</g>
<!-- main.o&#45;&gt;foo.cmx -->
<g id="edge12" class="edge">
<title>main.o&#45;&gt;foo.cmx</title>
<path fill="none" stroke="black" d="M135.3,-219.17C151.4,-209.02 173.53,-195.06 191.71,-183.6"/>
<polygon fill="black" stroke="black" points="193.46,-186.63 200.06,-178.33 189.73,-180.71 193.46,-186.63"/>
</g>
<!-- main.o&#45;&gt;main.ml -->
<g id="edge13" class="edge">
<title>main.o&#45;&gt;main.ml</title>
<path fill="none" stroke="black" d="M115.34,-215.7C116.18,-208.41 117.17,-199.73 118.11,-191.54"/>
<polygon fill="black" stroke="black" points="121.58,-191.94 119.24,-181.61 114.63,-191.15 121.58,-191.94"/>
</g>
</g>
</svg>
